<?xml version="1.0" encoding="UTF-8" standalone="no"?>
<!-- Created with Inkscape (http://www.inkscape.org/) -->

<svg
   version="1.1"
   id="svg1"
   width="1440"
   height="1440"
   viewBox="0 0 1440 1440"
   sodipodi:docname="wh.svg"
   inkscape:version="1.3 (0e150ed6c4, 2023-07-21)"
   xmlns:inkscape="http://www.inkscape.org/namespaces/inkscape"
   xmlns:sodipodi="http://sodipodi.sourceforge.net/DTD/sodipodi-0.dtd"
   xmlns="http://www.w3.org/2000/svg"
   xmlns:svg="http://www.w3.org/2000/svg">
  <defs
     id="defs1" />
  <sodipodi:namedview
     id="namedview1"
     pagecolor="#ffffff"
     bordercolor="#000000"
     borderopacity="0.25"
     inkscape:showpageshadow="2"
     inkscape:pageopacity="0.0"
     inkscape:pagecheckerboard="0"
     inkscape:deskcolor="#d1d1d1"
     inkscape:zoom="0.58125"
     inkscape:cx="774.19355"
     inkscape:cy="738.92473"
     inkscape:window-width="1920"
     inkscape:window-height="1051"
     inkscape:window-x="-9"
     inkscape:window-y="-9"
     inkscape:window-maximized="1"
     inkscape:current-layer="g1" />
  <g
     inkscape:groupmode="layer"
     inkscape:label="Image"
     id="g1"
     style="display:inline"
     sodipodi:insensitive="true">
    <path
       style="fill:#000000"
       d="m 694.04295,1211.2414 -50.6666,-38.0662 -151.33334,-112.6596 -151.33333,-112.65959 -2.30366,-2.1827 -2.30366,-2.1827 48.02019,-35.69386 48.02019,-35.69389 156.05285,116.19985 156.05286,116.19989 1.8002,0.168 1.8002,0.1681 154.1761,-114.66669 154.17615,-114.66664 1.6069,0.13284 1.6069,0.13285 45.3141,33.68662 45.314,33.68663 1.7761,1.6709 1.7761,1.6709 -130.4428,97.11609 -130.44275,97.116 -72.9846,54.3936 -72.9847,54.3936 -1.0153,-0.099 -1.0154,-0.099 z m -8.1352,-242.94279 -58.5314,-43.77294 -144.66667,-108.26115 -144.66667,-108.26115 -0.30257,-0.91567 -0.30257,-0.91567 5.6359,-3.97819 5.63591,-3.9782 74.21953,-55.46137 74.21954,-55.46137 -32.21954,-24.00054 -32.21953,-24.00054 -49.07217,-36.42105 -49.07217,-36.42106 1.07217,-0.92879 1.07217,-0.92879 148.66666,-110.71688 148.66661,-110.71689 55.3334,-41.47508 55.3333,-41.47508 0.7469,-0.0181 0.7469,-0.0181 47.9198,35.85809 47.9197,35.85812 156.2885,116.47524 156.28855,116.47525 -0.2885,0.97662 -0.2885,0.97661 -44,32.81264 -44,32.81264 -3.5364,2.54209 -3.5363,2.5421 -155.13035,-115.49622 -155.1303,-115.49622 -1.5804,-1.26014 -1.5804,-1.26014 -107.753,80.23421 -107.75286,80.23421 -1.0024,0.92658 -1.0025,0.92658 32.499,24.26422 32.4991,24.26422 h 0.5915 0.5914 l 74.53816,-56 74.5381,-56 h 0.7169 0.717 l 78.169,58.33333 78.1691,58.33334 47.4652,35.33333 47.4652,35.33333 -0.03,0.66667 -0.029,0.66667 -159.4245,118.61126 -159.4245,118.61127 3.8099,3.04239 3.81,3.04238 26.2732,19.42458 26.2731,19.42458 159.0602,-118.46687 159.06015,-118.46688 1.6903,-1.03794 1.6902,-1.03795 46.9764,34.9273 46.9765,34.9273 1.0659,0.96527 1.066,0.96526 -117.066,87.15958 -117.06595,87.15958 -84,62.73193 -84,62.73199 -4.1353,2.9256 -4.1352,2.9255 z m 7.8289,-295.64492 112.3063,-83.51834 2.3494,-2.20142 2.3494,-2.20143 -32.811,-24.37364 -32.8111,-24.37365 -1.6463,0.63176 -1.6464,0.63176 -111.2253,82.97367 -111.22526,82.97367 -2.3222,2.18048 -2.3221,2.18047 32.3221,24.27124 32.3222,24.27124 1.027,0.0363 1.0271,0.0363 z"
       id="path1" />
  </g>
</svg>
